<svg version="1" xmlns="http://www.w3.org/2000/svg" width="250" height="250" viewBox="0 0 2500 2500"><g fill="#fff"><path d="M1015 2404c-188-65-225-80-252-110l-33-34v-539c0-565 1-576 44-604 26-17 454-137 488-137 27 0 450 115 479 130 50 27 49 14 49 616v561l-23 25c-17 18-60 37-143 63-65 20-168 52-228 71s-121 34-135 33c-14 0-125-34-246-75z"/><path d="M197 1072c-15-16-17-53-17-305V480l28-29c30-33 4-23 586-240 302-114 441-161 470-161s190 56 541 188c467 176 501 190 522 222 22 32 23 39 23 310v277l-25 23-24 23-505-152c-277-83-518-151-534-151s-112 25-213 55c-604 182-818 245-826 245-6 0-17-8-26-18z"/></g></svg>