<svg xmlns="http://www.w3.org/2000/svg" viewBox="0 0 33 33" width="512" height="512"><g fill="#D80027"><path d="M16.5 33C7.402 33 0 25.598 0 16.5S7.402 0 16.5 0 33 7.402 33 16.5 25.598 33 16.5 33zm0-32C7.953 1 1 7.953 1 16.5S7.953 32 16.5 32 32 25.047 32 16.5 25.047 1 16.5 1z"/><circle cx="11.702" cy="11.93" r="2.125"/><circle cx="21.827" cy="11.93" r="2.125"/><path d="M10.326 23.918a.5.5 0 0 1-.425-.762 7.736 7.736 0 0 1 6.623-3.696 7.747 7.747 0 0 1 6.572 3.615.499.499 0 1 1-.844.535 6.75 6.75 0 0 0-5.727-3.15 6.741 6.741 0 0 0-5.772 3.222.503.503 0 0 1-.427.236z"/></g></svg>